<?xml version="1.0" encoding="UTF-8"?>
<!--
doc: topology
package: IntellectusLib
repo: moot-core
authored_commit: b2a5c30b794cf477e18022c55e2fea348614d337
authored_date: 2026-07-04
sources:
  - path: Sources/IntellectusLib/Intellectus.swift
    blob: 47d1dbe60d0ed880eaf657986ef9371f66423fda
  - path: Sources/IntellectusLib/RecentWindowSink.swift
    blob: 275f059bb1c0b5ebea68c7d32d2e6bb5ad5ed034
  - path: Sources/IntellectusLib/StatSample.swift
    blob: 5a63d181680c35a1b79279f83651f8cb62dcd9b7
  - path: Sources/IntellectusLib/StatsSink.swift
    blob: 60dc64a00370e491273c2328409a9d56fc46463b
-->
<svg xmlns="http://www.w3.org/2000/svg" width="900" height="420" viewBox="0 0 900 420" font-family="Helvetica, Arial, sans-serif">
  <defs>
    <marker id="arrow" viewBox="0 0 10 10" refX="9" refY="5" markerWidth="7" markerHeight="7" orient="auto-start-reverse">
      <path d="M 0 0 L 10 5 L 0 10 z" fill="#333"/>
    </marker>
  </defs>

  <style>
    .box   { fill: #ffffff; stroke: #333; stroke-width: 1.5; }
    .art   { fill: #f4f4f4; stroke: #777; stroke-width: 1.2; }
    .label { font-size: 13px; fill: #111; }
    .sub   { font-size: 10.5px; fill: #555; }
    .flow  { stroke: #333; stroke-width: 1.5; fill: none; marker-end: url(#arrow); }
    .off   { stroke: #999; stroke-width: 1.3; fill: none; marker-end: url(#arrow); stroke-dasharray: 3 3; }
    .region { fill: none; stroke: #999; stroke-width: 1.2; stroke-dasharray: 7 4; }
    .regionlabel { font-size: 11px; fill: #777; font-style: italic; }
  </style>

  <!-- Title -->
  <text x="20" y="28" font-size="15" font-weight="bold" fill="#111">IntellectusLib: sample in, gated delivery out</text>

  <!-- Caller -->
  <rect class="box" x="20" y="90" width="120" height="56" rx="6"/>
  <text class="label" x="80" y="113" text-anchor="middle">Caller</text>
  <text class="sub" x="80" y="130" text-anchor="middle">Intellectus.report(...)</text>

  <!-- Gate -->
  <rect class="box" x="190" y="90" width="150" height="56" rx="6"/>
  <text class="label" x="265" y="110" text-anchor="middle">Enabled gate</text>
  <text class="sub" x="265" y="126" text-anchor="middle">Atomic&lt;Bool&gt; load</text>
  <text class="sub" x="265" y="140" text-anchor="middle">off = autoclosure never runs</text>

  <!-- Off-path dead end -->
  <rect class="art" x="190" y="190" width="150" height="44" rx="6"/>
  <text class="sub" x="265" y="208" text-anchor="middle">disabled (default)</text>
  <text class="sub" x="265" y="222" text-anchor="middle">return: no sink call</text>

  <!-- Holder / sink lock -->
  <rect class="box" x="390" y="90" width="150" height="56" rx="6"/>
  <text class="label" x="465" y="110" text-anchor="middle">_IntellectusHolder</text>
  <text class="sub" x="465" y="126" text-anchor="middle">NSLock snapshot of</text>
  <text class="sub" x="465" y="140" text-anchor="middle">installed sink, then unlock</text>

  <!-- StatsSink protocol boundary -->
  <rect class="region" x="590" y="30" width="290" height="330"/>
  <text class="regionlabel" x="600" y="48">host-installed StatsSink (protocol boundary)</text>

  <rect class="box" x="615" y="70" width="110" height="48" rx="6"/>
  <text class="label" x="670" y="90" text-anchor="middle">NoOpSink</text>
  <text class="sub" x="670" y="104" text-anchor="middle">default, discards</text>

  <rect class="box" x="740" y="70" width="115" height="48" rx="6"/>
  <text class="label" x="797" y="90" text-anchor="middle">Custom sink</text>
  <text class="sub" x="797" y="104" text-anchor="middle">host-supplied</text>

  <rect class="box" x="615" y="150" width="240" height="60" rx="6"/>
  <text class="label" x="735" y="172" text-anchor="middle">RecentWindowSink</text>
  <text class="sub" x="735" y="188" text-anchor="middle">bundled: fixed-capacity ring buffer,</text>
  <text class="sub" x="735" y="200" text-anchor="middle">oldest evicted; snapshot() / count / totalReceived</text>

  <rect class="art" x="640" y="250" width="190" height="52" rx="6"/>
  <text class="label" x="735" y="270" text-anchor="middle">forward sink</text>
  <text class="sub" x="735" y="286" text-anchor="middle">optional, host durable store</text>

  <!-- Flows -->
  <line class="flow" x1="140" y1="118" x2="188" y2="118"/>
  <line class="off"  x1="265" y1="146" x2="265" y2="188"/>
  <line class="flow" x1="340" y1="118" x2="388" y2="118"/>
  <line class="flow" x1="540" y1="112" x2="613" y2="94"/>
  <line class="flow" x1="540" y1="124" x2="613" y2="175"/>
  <line class="flow" x1="735" y1="210" x2="735" y2="248"/>

  <text class="sub" x="470" y="160" text-anchor="middle" fill="#777">sample.receive(_:): outside the lock</text>
</svg>
