<?xml version="1.0" encoding="UTF-8"?>
<!--
doc: topology
package: SubstrateKernel
repo: moot-core
authored_commit: b2a5c30b794cf477e18022c55e2fea348614d337
authored_date: 2026-07-04
sources:
  - path: Sources/SubstrateKernel/PortableKernel.swift
    blob: 5279dadeb909d4d8980f2fc3a3100caf7d9066d3
  - path: Sources/SubstrateKernel/PortableKernel-SIMD.swift
    blob: 88caebd2a66c6541f9dff3aff7555dabc557ee5f
  - path: Sources/SubstrateKernel/PortableKernel-NEON.swift
    blob: 996063a101bcd76d2ea965b58072eac2141adf98
  - path: Sources/SubstrateKernel/PortableKernel-Metal.swift
    blob: 4c9837448547cb44fde52a08b8e639876d23f150
  - path: Sources/SubstrateKernel/HammingNN.swift
    blob: c810cb5ada7b0c1cdc7789791552478b19bdad07
  - path: Sources/SubstrateKernel/BitField.swift
    blob: 755ce095e0db4d4d4f5f01cc3568cb8403e5952f
  - path: Sources/SubstrateKernel/SHA256.swift
    blob: 143a3530a8dee15446fa5711022638e0d61219b2
  - path: Sources/SubstrateKernel/HKDF.swift
    blob: 53cd1dbef1ea0b9a8c932cdcfc303b50eb49adba
  - path: Sources/SubstrateKernel/FloatVecOps.swift
    blob: b1c4593a99fe078b19ad0058a2e76e9949abd524
-->
<svg xmlns="http://www.w3.org/2000/svg" width="940" height="520" viewBox="0 0 940 520" font-family="Helvetica, Arial, sans-serif">
  <defs>
    <marker id="arrow" viewBox="0 0 10 10" refX="9" refY="5" markerWidth="7" markerHeight="7" orient="auto-start-reverse">
      <path d="M 0 0 L 10 5 L 0 10 z" fill="#333"/>
    </marker>
  </defs>

  <style>
    .box    { fill: #ffffff; stroke: #333; stroke-width: 1.5; }
    .backend{ fill: #f4f4f4; stroke: #777; stroke-width: 1.2; }
    .label  { font-size: 13px; fill: #111; }
    .sub    { font-size: 10.5px; fill: #555; }
    .flow   { stroke: #333; stroke-width: 1.5; fill: none; marker-end: url(#arrow); }
    .altflow{ stroke: #888; stroke-width: 1.3; fill: none; marker-end: url(#arrow); stroke-dasharray: 5 3; }
    .region { fill: none; stroke: #999; stroke-width: 1.2; stroke-dasharray: 7 4; }
    .regionlabel { font-size: 11px; fill: #777; font-style: italic; }
  </style>

  <!-- Title -->
  <text x="20" y="28" font-size="15" font-weight="bold" fill="#111">SubstrateKernel: kernel dispatch plus independent primitives</text>

  <!-- Caller -->
  <rect class="box" x="20" y="70" width="110" height="50" rx="6"/>
  <text class="label" x="75" y="91" text-anchor="middle">Caller</text>
  <text class="sub" x="75" y="106" text-anchor="middle">e.g. LocusKit</text>

  <!-- Dispatcher -->
  <rect class="box" x="180" y="70" width="150" height="50" rx="6"/>
  <text class="label" x="255" y="91" text-anchor="middle">PortableKernel</text>
  <text class="sub" x="255" y="106" text-anchor="middle">kernelForCurrentPlatform / kernel(of:)</text>

  <!-- Backends region -->
  <rect class="region" x="380" y="20" width="540" height="220"/>
  <text class="regionlabel" x="390" y="36">SubstrateKernel protocol — every backend bit-identical to Scalar</text>

  <rect class="backend" x="400" y="50" width="120" height="50" rx="6"/>
  <text class="label" x="460" y="71" text-anchor="middle">ScalarKernel</text>
  <text class="sub" x="460" y="86" text-anchor="middle">the oracle</text>

  <rect class="backend" x="540" y="50" width="120" height="50" rx="6"/>
  <text class="label" x="600" y="71" text-anchor="middle">SimdKernel</text>
  <text class="sub" x="600" y="86" text-anchor="middle">arm64 default</text>

  <rect class="backend" x="680" y="50" width="110" height="50" rx="6"/>
  <text class="label" x="735" y="71" text-anchor="middle">NeonKernel</text>
  <text class="sub" x="735" y="86" text-anchor="middle">opt-in, benchmark</text>

  <rect class="backend" x="800" y="50" width="105" height="50" rx="6"/>
  <text class="label" x="852" y="71" text-anchor="middle">MetalKernel</text>
  <text class="sub" x="852" y="86" text-anchor="middle">opt-in, GPU</text>

  <rect class="box" x="400" y="150" width="200" height="60" rx="6"/>
  <text class="label" x="500" y="173" text-anchor="middle">Hamming / OR-reduce /</text>
  <text class="label" x="500" y="189" text-anchor="middle">SimHash / count-fold</text>
  <text class="sub" x="500" y="203" text-anchor="middle">result: identical across backends</text>

  <!-- Dispatch arrows -->
  <line class="flow" x1="130" y1="95" x2="178" y2="95"/>
  <line class="flow" x1="330" y1="88" x2="450" y2="75"/>
  <line class="altflow" x1="330" y1="95" x2="590" y2="75"/>
  <line class="altflow" x1="330" y1="102" x2="725" y2="78"/>
  <line class="altflow" x1="330" y1="108" x2="845" y2="78"/>
  <line class="flow" x1="460" y1="100" x2="480" y2="148"/>
  <line class="flow" x1="600" y1="100" x2="540" y2="148"/>

  <!-- Independent primitives region -->
  <rect class="region" x="20" y="260" width="900" height="230"/>
  <text class="regionlabel" x="30" y="278">Independent primitives — no dispatcher, called directly</text>

  <rect class="box" x="40" y="300" width="160" height="55" rx="6"/>
  <text class="label" x="120" y="322" text-anchor="middle">HammingNN.topK</text>
  <text class="sub" x="120" y="338" text-anchor="middle">candidate-iterator top-K,</text>
  <text class="sub" x="120" y="350" text-anchor="middle">rowID-string tie-break</text>

  <rect class="box" x="240" y="300" width="150" height="55" rx="6"/>
  <text class="label" x="315" y="322" text-anchor="middle">BitField</text>
  <text class="sub" x="315" y="338" text-anchor="middle">packed-bitmap</text>
  <text class="sub" x="315" y="350" text-anchor="middle">field extract/write</text>

  <rect class="box" x="430" y="300" width="150" height="55" rx="6"/>
  <text class="label" x="505" y="322" text-anchor="middle">FloatVecOps</text>
  <text class="sub" x="505" y="338" text-anchor="middle">scalar oracle:</text>
  <text class="sub" x="505" y="350" text-anchor="middle">norm / dot / cosine</text>

  <rect class="box" x="620" y="300" width="140" height="55" rx="6"/>
  <text class="label" x="690" y="322" text-anchor="middle">SHA256</text>
  <text class="sub" x="690" y="338" text-anchor="middle">FIPS 180-4</text>
  <text class="sub" x="690" y="350" text-anchor="middle">content hash</text>

  <rect class="box" x="800" y="300" width="120" height="55" rx="6"/>
  <text class="label" x="860" y="322" text-anchor="middle">GrantHKDF</text>
  <text class="sub" x="860" y="338" text-anchor="middle">RFC 5869</text>
  <text class="sub" x="860" y="350" text-anchor="middle">key derivation</text>

  <line class="flow" x1="760" y1="327" x2="798" y2="327"/>

  <text class="regionlabel" x="40" y="400">Every primitive above is called directly by its consumer; none passes through PortableKernel.</text>
  <text class="regionlabel" x="40" y="418">Audit-log content IDs (SubstrateLib's AuditGate) consume only BitField + SHA256 from this package.</text>
  <text class="regionlabel" x="40" y="436">Metal is Apple-only; the Rust port has no Metal leg (platform waiver) and adds a dark AVX-512 backend Swift lacks.</text>
</svg>
